<svg width="375" height="360" viewBox="0 0 375 360" fill="none" xmlns="http://www.w3.org/2000/svg">
<path d="M259.865 147.012C258.503 147.012 257.517 147.998 257.517 149.348C257.517 150.711 258.503 151.696 259.853 151.696C261.216 151.696 262.189 150.711 262.201 149.36C262.201 147.998 261.228 147.012 259.865 147.012Z" fill="#424D67"/>
<path d="M283.298 147.012C281.935 146.988 280.913 147.949 280.889 149.3C280.865 150.662 281.838 151.684 283.176 151.709C284.539 151.733 285.549 150.772 285.573 149.421C285.61 148.046 284.649 147.037 283.298 147.012Z" fill="#424D67"/>
<path d="M306.646 147.012C305.283 147 304.285 147.986 304.273 149.336C304.261 150.699 305.246 151.696 306.597 151.709C307.96 151.721 308.945 150.747 308.957 149.385C308.969 148.01 308.008 147.024 306.646 147.012Z" fill="#424D67"/>
<path d="M201.393 163.401C202.755 163.401 203.741 162.427 203.741 161.065C203.741 159.702 202.768 158.716 201.405 158.716C200.042 158.716 199.057 159.702 199.057 161.052C199.045 162.403 200.042 163.388 201.393 163.401Z" fill="#424D67"/>
<path d="M224.74 163.401C226.103 163.413 227.101 162.452 227.125 161.089C227.137 159.714 226.176 158.716 224.826 158.704C223.463 158.692 222.453 159.653 222.441 161.004C222.417 162.366 223.402 163.376 224.74 163.401Z" fill="#424D67"/>
<path d="M248.137 158.704C246.786 158.716 245.801 159.714 245.813 161.077C245.825 162.427 246.835 163.413 248.185 163.401C249.548 163.388 250.509 162.391 250.497 161.028C250.497 159.665 249.499 158.692 248.137 158.704Z" fill="#424D67"/>
<path d="M271.642 158.704C270.28 158.668 269.245 159.617 269.197 160.955C269.16 162.318 270.109 163.352 271.448 163.401C272.81 163.437 273.844 162.488 273.881 161.15C273.93 159.763 272.993 158.741 271.642 158.704Z" fill="#424D67"/>
<path d="M294.978 158.704C293.615 158.692 292.605 159.665 292.593 161.004C292.581 162.366 293.554 163.376 294.905 163.388C296.267 163.401 297.265 162.427 297.277 161.077C297.289 159.714 296.328 158.716 294.978 158.704Z" fill="#424D67"/>
<path d="M213.097 175.093C214.46 175.08 215.433 174.095 215.421 172.732C215.421 171.37 214.435 170.396 213.073 170.396C211.71 170.396 210.737 171.394 210.737 172.757C210.749 174.107 211.747 175.093 213.097 175.093Z" fill="#424D67"/>
<path d="M234.133 172.574C234.06 173.949 234.985 175.007 236.311 175.093C237.673 175.166 238.744 174.241 238.817 172.915C238.89 171.54 237.978 170.482 236.651 170.409C235.264 170.323 234.206 171.248 234.133 172.574Z" fill="#E0B034"/>
<path d="M259.95 170.396C258.588 170.36 257.554 171.297 257.517 172.647C257.481 174.01 258.43 175.044 259.768 175.093C261.131 175.129 262.165 174.18 262.201 172.842C262.238 171.455 261.301 170.433 259.95 170.396Z" fill="#424D67"/>
<path d="M283.201 170.396C281.85 170.408 280.877 171.418 280.901 172.781C280.913 174.131 281.923 175.105 283.286 175.093C284.636 175.068 285.597 174.071 285.585 172.708C285.561 171.345 284.563 170.384 283.201 170.396Z" fill="#424D67"/>
<path d="M224.777 186.785C226.14 186.785 227.113 185.811 227.125 184.449C227.125 183.086 226.152 182.101 224.789 182.101C223.426 182.101 222.441 183.086 222.441 184.437C222.441 185.787 223.426 186.785 224.777 186.785Z" fill="#424D67"/>
<path d="M248.112 182.088C246.762 182.113 245.789 183.123 245.813 184.485C245.837 185.836 246.847 186.809 248.21 186.785C249.56 186.76 250.521 185.763 250.497 184.388C250.485 183.025 249.487 182.064 248.112 182.088Z" fill="#424D67"/>
<path d="M271.594 182.088C270.231 182.076 269.221 183.05 269.209 184.388C269.197 185.751 270.17 186.76 271.521 186.773C272.883 186.785 273.881 185.824 273.893 184.461C273.905 183.098 272.944 182.101 271.594 182.088Z" fill="#424D67"/>
<path d="M236.384 198.477C237.747 198.513 238.781 197.564 238.817 196.226C238.854 194.851 237.917 193.829 236.579 193.793C235.216 193.756 234.182 194.705 234.133 196.043C234.084 197.394 235.046 198.428 236.384 198.477Z" fill="#424D67"/>
<path d="M259.914 193.78C258.551 193.756 257.529 194.717 257.505 196.068C257.481 197.43 258.454 198.452 259.792 198.477C261.155 198.501 262.165 197.54 262.189 196.189C262.225 194.815 261.264 193.805 259.914 193.78Z" fill="#424D67"/>
<path d="M248.125 205.472C246.774 205.497 245.801 206.494 245.825 207.857C245.849 209.208 246.859 210.181 248.21 210.157C249.56 210.132 250.521 209.135 250.509 207.772C250.485 206.421 249.487 205.448 248.125 205.472Z" fill="#E9EBF5"/>
<path d="M224.789 116.632C226.152 116.632 227.125 115.647 227.125 114.272C227.125 112.909 226.14 111.936 224.777 111.936C223.414 111.936 222.429 112.934 222.441 114.284C222.441 115.647 223.439 116.632 224.789 116.632Z" fill="#3DB93A"/>
<path d="M250.497 114.442C250.57 113.068 249.658 112.009 248.331 111.936C246.957 111.863 245.898 112.788 245.825 114.114C245.752 115.477 246.677 116.547 248.003 116.62C249.366 116.705 250.436 115.769 250.497 114.442Z" fill="#424D67"/>
<path d="M271.594 111.936C270.231 111.924 269.221 112.897 269.209 114.236C269.197 115.598 270.17 116.608 271.521 116.62C272.883 116.632 273.881 115.671 273.893 114.309C273.905 112.946 272.944 111.96 271.594 111.936Z" fill="#E9EBF5"/>
<path d="M213.134 128.324C214.484 128.3 215.445 127.302 215.433 125.94C215.421 124.589 214.423 123.616 213.048 123.64C211.698 123.665 210.725 124.662 210.749 126.025C210.761 127.363 211.771 128.337 213.134 128.324Z" fill="#424D67"/>
<path d="M236.518 123.628C235.155 123.616 234.157 124.577 234.133 125.928C234.121 127.29 235.082 128.3 236.432 128.312C237.795 128.324 238.793 127.363 238.817 126.001C238.829 124.65 237.868 123.653 236.518 123.628Z" fill="#424D67"/>
<path d="M259.877 123.628C258.515 123.616 257.517 124.589 257.517 125.952C257.505 127.315 258.491 128.312 259.841 128.324C261.204 128.337 262.189 127.351 262.201 126.001C262.201 124.626 261.24 123.64 259.877 123.628Z" fill="#424D67"/>
<path d="M283.237 123.628C281.874 123.628 280.901 124.614 280.901 125.976C280.901 127.339 281.899 128.324 283.249 128.312C284.612 128.312 285.585 127.327 285.585 125.952C285.573 124.602 284.6 123.628 283.237 123.628Z" fill="#424D67"/>
<path d="M201.368 140.017C202.731 140.029 203.717 139.055 203.729 137.693C203.741 136.33 202.768 135.332 201.417 135.32C200.055 135.308 199.057 136.294 199.045 137.644C199.045 138.995 200.03 140.004 201.368 140.017Z" fill="#424D67"/>
<path d="M224.753 140.017C226.115 140.029 227.101 139.055 227.113 137.693C227.125 136.33 226.152 135.332 224.801 135.32C223.439 135.308 222.441 136.294 222.429 137.644C222.429 138.995 223.414 140.004 224.753 140.017Z" fill="#424D67"/>
<path d="M248.259 135.32C246.896 135.284 245.862 136.233 245.813 137.571C245.777 138.934 246.726 139.968 248.064 140.017C249.426 140.065 250.461 139.104 250.497 137.766C250.546 136.379 249.609 135.369 248.259 135.32Z" fill="#E9EBF5"/>
<path d="M271.557 135.32C270.195 135.32 269.209 136.306 269.209 137.656C269.209 139.019 270.195 140.004 271.545 140.017C272.908 140.017 273.893 139.043 273.893 137.681C273.893 136.306 272.92 135.32 271.557 135.32Z" fill="#424D67"/>
<path d="M294.953 135.32C293.591 135.308 292.593 136.294 292.581 137.644C292.569 139.007 293.554 140.004 294.905 140.017C296.267 140.029 297.253 139.043 297.265 137.693C297.277 136.318 296.316 135.332 294.953 135.32Z" fill="#424D67"/>
<path d="M189.689 151.709C191.051 151.721 192.037 150.735 192.049 149.385C192.061 148.022 191.088 147.024 189.737 147.024C188.375 147.012 187.377 147.998 187.365 149.348C187.353 150.687 188.338 151.696 189.689 151.709Z" fill="#424D67"/>
<path d="M213 151.709C214.362 151.757 215.396 150.796 215.433 149.458C215.469 148.083 214.533 147.061 213.194 147.012C211.832 146.976 210.798 147.925 210.749 149.263C210.7 150.626 211.661 151.66 213 151.709Z" fill="#6B34E0"/>
<path d="M236.505 147.012C235.143 147 234.133 147.973 234.121 149.324C234.109 150.687 235.082 151.696 236.432 151.709C237.795 151.721 238.793 150.747 238.805 149.397C238.829 148.022 237.868 147.024 236.505 147.012Z" fill="#424D67"/>
<path d="M369.631 161.413C369.631 85.5794 431.109 24.1019 506.943 24.1019" stroke="#424D67" stroke-miterlimit="10"/>
<path d="M506.943 298.725C431.109 298.725 369.631 237.247 369.631 161.413" stroke="#424D67" stroke-width="4" stroke-miterlimit="10"/>
<path d="M369.631 161.413C369.631 85.5794 431.109 24.1019 506.943 24.1019" stroke="#E9EBF5" stroke-miterlimit="10"/>
<path d="M506.943 298.725C431.109 298.725 369.631 237.247 369.631 161.413" stroke="#424D67" stroke-width="4" stroke-miterlimit="10"/>
<path d="M358.073 161.413C358.073 79.192 424.721 12.5437 506.943 12.5437" stroke="#424D67" stroke-miterlimit="10"/>
<path d="M506.943 310.283C424.721 310.283 358.073 243.635 358.073 161.413" stroke="#E9EBF5" stroke-width="4" stroke-miterlimit="10"/>
<path d="M345.53 161.413C345.53 72.2692 417.799 0 506.943 0" stroke="#E9EBF5" stroke-miterlimit="10"/>
<path d="M506.943 322.827C417.799 322.827 345.53 250.558 345.53 161.413" stroke="#424D67" stroke-width="4" stroke-miterlimit="10"/>
<path d="M220.214 253.611L282.799 191.015" stroke="#424D67" stroke-width="2" stroke-miterlimit="10"/>
<path d="M235.678 253.611L298.275 191.015" stroke="#E9EBF5" stroke-width="2" stroke-miterlimit="10"/>
<path d="M251.154 253.611L313.738 191.015" stroke="#3DB93A" stroke-width="2" stroke-miterlimit="10"/>
<path d="M266.617 253.611L329.214 191.015" stroke="#E0B034" stroke-width="2" stroke-miterlimit="10"/>
<path d="M278.115 296.855C276.752 296.855 275.767 297.841 275.767 299.191C275.767 300.554 276.752 301.539 278.103 301.539C279.465 301.539 280.439 300.554 280.451 299.203C280.451 297.841 279.478 296.855 278.115 296.855Z" fill="#E9EBF5"/>
<path d="M301.548 296.855C300.185 296.831 299.163 297.792 299.139 299.143C299.114 300.505 300.088 301.527 301.426 301.552C302.789 301.576 303.798 300.615 303.823 299.264C303.859 297.889 302.898 296.88 301.548 296.855Z" fill="#E9EBF5"/>
<path d="M324.895 296.855C323.533 296.843 322.535 297.829 322.523 299.179C322.511 300.542 323.496 301.539 324.847 301.552C326.209 301.564 327.195 300.59 327.207 299.228C327.219 297.853 326.258 296.867 324.895 296.855Z" fill="#E9EBF5"/>
<path d="M219.643 313.244C221.005 313.244 221.991 312.27 221.991 310.908C221.991 309.545 221.018 308.559 219.655 308.559C218.292 308.559 217.307 309.545 217.307 310.895C217.295 312.246 218.292 313.231 219.643 313.244Z" fill="#E9EBF5"/>
<path d="M242.99 313.244C244.353 313.256 245.351 312.295 245.375 310.932C245.387 309.557 244.426 308.559 243.076 308.547C241.713 308.535 240.703 309.496 240.691 310.847C240.667 312.209 241.652 313.219 242.99 313.244Z" fill="#E9EBF5"/>
<path d="M266.386 308.547C265.036 308.559 264.05 309.557 264.063 310.92C264.075 312.27 265.085 313.256 266.435 313.244C267.798 313.231 268.759 312.234 268.747 310.871C268.747 309.508 267.749 308.535 266.386 308.547Z" fill="#E9EBF5"/>
<path d="M289.892 308.547C288.53 308.511 287.495 309.46 287.447 310.798C287.41 312.161 288.359 313.195 289.698 313.244C291.06 313.28 292.094 312.331 292.131 310.993C292.18 309.606 291.243 308.584 289.892 308.547Z" fill="#E9EBF5"/>
<path d="M313.228 308.547C311.865 308.535 310.855 309.508 310.843 310.847C310.831 312.209 311.804 313.219 313.155 313.231C314.517 313.244 315.515 312.27 315.527 310.92C315.539 309.557 314.578 308.559 313.228 308.547Z" fill="#E9EBF5"/>
<path d="M231.347 324.936C232.71 324.923 233.683 323.938 233.671 322.575C233.671 321.213 232.685 320.239 231.323 320.239C229.96 320.239 228.987 321.237 228.987 322.6C228.999 323.95 229.996 324.936 231.347 324.936Z" fill="#E9EBF5"/>
<path d="M252.383 322.417C252.31 323.792 253.234 324.85 254.56 324.936C255.923 325.009 256.994 324.084 257.067 322.758C257.14 321.383 256.227 320.324 254.901 320.251C253.514 320.166 252.456 321.091 252.383 322.417Z" fill="#E9EBF5"/>
<path d="M278.2 320.239C276.838 320.203 275.803 321.14 275.767 322.49C275.73 323.853 276.679 324.887 278.018 324.936C279.38 324.972 280.415 324.023 280.451 322.685C280.488 321.298 279.551 320.276 278.2 320.239Z" fill="#E9EBF5"/>
<path d="M301.45 320.239C300.1 320.252 299.127 321.261 299.151 322.624C299.163 323.974 300.173 324.948 301.535 324.936C302.886 324.911 303.847 323.914 303.835 322.551C303.811 321.188 302.813 320.227 301.45 320.239Z" fill="#E9EBF5"/>
<path d="M243.027 336.628C244.389 336.628 245.363 335.654 245.375 334.292C245.375 332.929 244.401 331.944 243.039 331.944C241.676 331.944 240.691 332.929 240.691 334.28C240.691 335.63 241.676 336.628 243.027 336.628Z" fill="#E9EBF5"/>
<path d="M266.362 331.931C265.011 331.956 264.038 332.966 264.062 334.328C264.087 335.679 265.097 336.652 266.459 336.628C267.81 336.603 268.771 335.606 268.747 334.231C268.734 332.868 267.737 331.907 266.362 331.931Z" fill="#E9EBF5"/>
<path d="M289.844 331.931C288.481 331.919 287.471 332.893 287.459 334.231C287.447 335.594 288.42 336.603 289.77 336.615C291.133 336.628 292.131 335.666 292.143 334.304C292.155 332.941 291.194 331.944 289.844 331.931Z" fill="#E9EBF5"/>
<path d="M254.634 348.32C255.996 348.356 257.03 347.407 257.067 346.069C257.103 344.694 256.167 343.672 254.828 343.636C253.466 343.599 252.432 344.548 252.383 345.886C252.334 347.237 253.295 348.271 254.634 348.32Z" fill="#E9EBF5"/>
<path d="M278.164 343.623C276.801 343.599 275.779 344.56 275.755 345.911C275.731 347.273 276.704 348.295 278.042 348.32C279.405 348.344 280.415 347.383 280.439 346.032C280.475 344.658 279.514 343.648 278.164 343.623Z" fill="#E9EBF5"/>
<path d="M266.374 355.316C265.024 355.34 264.05 356.337 264.075 357.7C264.099 359.051 265.109 360.024 266.459 360C267.81 359.975 268.771 358.978 268.759 357.615C268.734 356.264 267.737 355.291 266.374 355.316Z" fill="#E9EBF5"/>
<path d="M243.039 266.475C244.402 266.475 245.375 265.49 245.375 264.115C245.375 262.752 244.389 261.779 243.027 261.779C241.664 261.779 240.679 262.777 240.691 264.127C240.691 265.49 241.688 266.475 243.039 266.475Z" fill="#E9EBF5"/>
<path d="M268.747 264.285C268.82 262.911 267.907 261.852 266.581 261.779C265.206 261.706 264.148 262.631 264.075 263.957C264.002 265.32 264.926 266.39 266.253 266.463C267.615 266.548 268.686 265.612 268.747 264.285Z" fill="#E9EBF5"/>
<path d="M289.844 261.779C288.481 261.767 287.471 262.74 287.459 264.079C287.447 265.441 288.42 266.451 289.77 266.463C291.133 266.475 292.131 265.514 292.143 264.152C292.155 262.789 291.194 261.803 289.844 261.779Z" fill="#E9EBF5"/>
<path d="M231.383 278.167C232.734 278.143 233.695 277.145 233.683 275.783C233.671 274.432 232.673 273.459 231.298 273.483C229.948 273.508 228.974 274.505 228.999 275.868C229.011 277.206 230.021 278.18 231.383 278.167Z" fill="#E9EBF5"/>
<path d="M254.767 273.471C253.405 273.459 252.407 274.42 252.383 275.771C252.371 277.133 253.332 278.143 254.682 278.155C256.045 278.167 257.042 277.206 257.067 275.844C257.079 274.493 256.118 273.496 254.767 273.471Z" fill="#E9EBF5"/>
<path d="M278.127 273.471C276.765 273.459 275.767 274.432 275.767 275.795C275.755 277.158 276.74 278.155 278.091 278.167C279.453 278.18 280.439 277.194 280.451 275.844C280.451 274.469 279.49 273.483 278.127 273.471Z" fill="#E9EBF5"/>
<path d="M301.487 273.471C300.124 273.471 299.151 274.457 299.151 275.819C299.151 277.182 300.149 278.167 301.499 278.155C302.862 278.155 303.835 277.17 303.835 275.795C303.823 274.444 302.849 273.471 301.487 273.471Z" fill="#E9EBF5"/>
<path d="M219.618 289.86C220.981 289.872 221.966 288.898 221.979 287.536C221.991 286.173 221.017 285.175 219.667 285.163C218.304 285.151 217.307 286.137 217.294 287.487C217.294 288.838 218.28 289.847 219.618 289.86Z" fill="#E9EBF5"/>
<path d="M243.002 289.86C244.365 289.872 245.35 288.898 245.363 287.536C245.375 286.173 244.401 285.175 243.051 285.163C241.688 285.151 240.691 286.137 240.678 287.487C240.678 288.838 241.664 289.847 243.002 289.86Z" fill="#E9EBF5"/>
<path d="M266.508 285.163C265.145 285.127 264.111 286.076 264.063 287.414C264.026 288.777 264.975 289.811 266.313 289.86C267.676 289.908 268.71 288.947 268.747 287.609C268.795 286.222 267.859 285.212 266.508 285.163Z" fill="#E9EBF5"/>
<path d="M289.807 285.163C288.444 285.163 287.459 286.149 287.459 287.499C287.459 288.862 288.444 289.847 289.795 289.859C291.158 289.859 292.143 288.886 292.143 287.524C292.143 286.149 291.17 285.163 289.807 285.163Z" fill="#E9EBF5"/>
<path d="M313.203 285.163C311.84 285.151 310.843 286.137 310.831 287.487C310.819 288.85 311.804 289.847 313.154 289.86C314.517 289.872 315.503 288.886 315.515 287.536C315.527 286.161 314.566 285.175 313.203 285.163Z" fill="#E9EBF5"/>
<path d="M207.938 301.552C209.301 301.564 210.287 300.578 210.299 299.228C210.311 297.865 209.338 296.867 207.987 296.867C206.624 296.855 205.627 297.841 205.615 299.191C205.602 300.53 206.588 301.539 207.938 301.552Z" fill="#E9EBF5"/>
<path d="M231.249 301.552C232.612 301.6 233.646 300.639 233.683 299.301C233.719 297.926 232.782 296.904 231.444 296.855C230.081 296.819 229.047 297.768 228.999 299.106C228.95 300.469 229.911 301.503 231.249 301.552Z" fill="#E9EBF5"/>
<path d="M254.755 296.855C253.393 296.843 252.383 297.816 252.371 299.167C252.359 300.53 253.332 301.539 254.682 301.552C256.045 301.564 257.043 300.59 257.055 299.24C257.079 297.865 256.118 296.867 254.755 296.855Z" fill="#E9EBF5"/>
<path d="M203.704 340.858L226.59 301.219L203.704 261.58H157.934L135.049 301.219L157.934 340.858H203.704Z" fill="#E0B034"/>
<path d="M249.475 340.858L272.36 301.219L249.475 261.58H203.704L180.819 301.219L203.704 340.858H249.475Z" stroke="#424D67" stroke-width="2" stroke-miterlimit="10"/>
<path d="M333.071 138.407H264.014V207.464H333.071V138.407Z" stroke="#DFB25B" stroke-width="2" stroke-miterlimit="10"/>
<path d="M367.599 103.878H298.542V172.935H367.599V103.878Z" fill="#6B34E0"/>
<path d="M84.8616 139.854L84.8616 5.694e-06" stroke="#3DB93A" stroke-width="2" stroke-miterlimit="10"/>
<path d="M73.6074 157.411L73.6074 -1.96387e-06" stroke="#E0B034" stroke-width="2" stroke-miterlimit="10"/>
<path d="M62.3535 174.955L62.3535 7.86606e-06" stroke="#E9EBF5" stroke-width="2" stroke-miterlimit="10"/>
<path d="M51.0994 192.499L51.0994 7.31724e-06" stroke="#E9EBF5" stroke-width="2" stroke-miterlimit="10"/>
<path d="M417.154 47.7536L397.152 67.6581L377.138 47.7536L357.136 67.6581L337.135 47.7536L319.493 65.3099L301.839 47.7536L281.838 67.6581L261.824 47.7536L241.822 67.6581L221.82 47.7536L201.964 67.5121L204.179 69.7264L221.82 52.1701L241.822 72.0745L261.824 52.1701L281.838 72.0745L301.839 52.1701L319.493 69.7386L337.135 52.1701L357.136 72.0745L377.138 52.1701L397.152 72.0745L417.154 52.1701L434.807 69.7264L437.01 67.5121L417.154 47.7536Z" fill="#E0B034"/>
<path d="M417.154 12.1665L397.152 32.071L377.138 12.1665L357.136 32.071L337.134 12.1665L321.269 27.9587L321.257 32.3873L337.134 16.583L357.136 36.4874L377.138 16.583L397.152 36.4874L417.154 16.583L434.807 34.1393L437.009 31.9128L417.154 12.1665Z" fill="#6B34E0"/>
<path d="M134.44 92.4657V76.6492M142.348 84.5574H126.532H142.348Z" stroke="#E0B034" stroke-miterlimit="10"/>
<path d="M134.44 53.5327V37.7162M142.348 45.6245H126.532H142.348Z" stroke="#E0B034" stroke-miterlimit="10"/>
<path d="M134.44 15.8165V0M142.348 7.90825H126.532H142.348Z" stroke="#E0B034" stroke-miterlimit="10"/>
<path d="M134.44 92.4657V76.6492M142.348 84.5574H126.532H142.348Z" stroke="#E9EBF5" stroke-width="2" stroke-miterlimit="10"/>
<path d="M134.44 53.5327V37.7162M142.348 45.6245H126.532H142.348Z" stroke="#424D67" stroke-width="2" stroke-miterlimit="10"/>
<path d="M134.44 15.8165V0M142.348 7.90825H126.532H142.348Z" stroke="#424D67" stroke-width="2" stroke-miterlimit="10"/>
<path d="M170.94 92.4657V76.6492M178.848 84.5574H163.031H178.848Z" stroke="#E0B034" stroke-miterlimit="10"/>
<path d="M170.94 53.5327V37.7162M178.848 45.6245H163.031H178.848Z" stroke="#E0B034" stroke-miterlimit="10"/>
<path d="M170.94 15.8165V0M178.848 7.90825H163.031H178.848Z" stroke="#E0B034" stroke-miterlimit="10"/>
<path d="M170.94 92.4657V76.6492M178.848 84.5574H163.031H178.848Z" stroke="#424D67" stroke-width="2" stroke-miterlimit="10"/>
<path d="M170.94 53.5327V37.7162M178.848 45.6245H163.031H178.848Z" stroke="#424D67" stroke-width="2" stroke-miterlimit="10"/>
<path d="M170.94 15.8165V0M178.848 7.90825H163.031H178.848Z" stroke="#E9EBF5" stroke-width="2" stroke-miterlimit="10"/>
<path d="M207.439 53.5327V37.7162M215.348 45.6245H199.531H215.348Z" stroke="#E0B034" stroke-miterlimit="10"/>
<path d="M207.439 15.8165V0M215.348 7.90825H199.531H215.348Z" stroke="#E0B034" stroke-miterlimit="10"/>
<path d="M207.439 53.5327V37.7162M215.348 45.6245H199.531H215.348Z" stroke="#424D67" stroke-width="2" stroke-miterlimit="10"/>
<path d="M207.439 15.8165V0M215.348 7.90825H199.531H215.348Z" stroke="#424D67" stroke-width="2" stroke-miterlimit="10"/>
<path d="M243.939 53.5327V37.7162M251.847 45.6245H236.031H251.847Z" stroke="#E0B034" stroke-miterlimit="10"/>
<path d="M243.939 15.8165V0M251.847 7.90825H236.031H251.847Z" stroke="#E0B034" stroke-miterlimit="10"/>
<path d="M243.939 53.5327V37.7162M251.847 45.6245H236.031H251.847Z" stroke="#E9EBF5" stroke-width="2" stroke-miterlimit="10"/>
<path d="M243.939 15.8165V0M251.847 7.90825H236.031H251.847Z" stroke="#424D67" stroke-width="2" stroke-miterlimit="10"/>
<path d="M280.439 53.5327V37.7162M288.347 45.6245H272.53H288.347Z" stroke="#E0B034" stroke-miterlimit="10"/>
<path d="M280.439 15.8165V0M288.347 7.90825H272.53H288.347Z" stroke="#E0B034" stroke-miterlimit="10"/>
<path d="M280.439 53.5327V37.7162M288.347 45.6245H272.53H288.347Z" stroke="#424D67" stroke-width="2" stroke-miterlimit="10"/>
<path d="M280.439 15.8165V0M288.347 7.90825H272.53H288.347Z" stroke="#E9EBF5" stroke-width="2" stroke-miterlimit="10"/>
<path d="M345.456 268.236C345.456 271.91 342.476 274.891 338.801 274.891C335.127 274.891 332.146 271.91 332.146 268.236C332.146 264.561 335.127 261.58 338.801 261.58C342.476 261.58 345.456 264.561 345.456 268.236Z" fill="#E9EBF5"/>
<path d="M366.127 288.906C366.127 292.581 363.147 295.562 359.472 295.562C355.798 295.562 352.817 292.581 352.817 288.906C352.817 285.232 355.798 282.251 359.472 282.251C363.147 282.251 366.127 285.232 366.127 288.906Z" fill="#6B34E0"/>
<path d="M386.798 309.577C386.798 313.252 383.817 316.233 380.143 316.233C376.469 316.233 373.488 313.252 373.488 309.577C373.488 305.903 376.469 302.922 380.143 302.922C383.83 302.922 386.798 305.903 386.798 309.577Z" fill="#3DB93A"/>
<path d="M168.125 84.308C198.678 102.173 208.957 141.431 191.092 171.984C173.227 202.538 133.97 212.816 103.416 194.951" stroke="#6B34E0" stroke-width="2" stroke-miterlimit="10"/>
<path d="M111.689 180.818C134.438 194.121 163.656 186.461 176.953 163.722C190.256 140.973 182.596 111.755 159.857 98.4581L111.689 180.818Z" fill="#3DB93A"/>
<path d="M151.61 130.524L131.73 147.35L151.61 164.176L131.73 181.003L151.61 197.829L131.73 214.668L151.61 231.506" stroke="#E9EBF5" stroke-width="4" stroke-miterlimit="10"/>
<path d="M178.376 130.524L158.496 147.35L178.376 164.176L158.496 181.003L178.376 197.829L158.496 214.668L178.376 231.506" stroke="#E0B034" stroke-width="4" stroke-miterlimit="10"/>
<path d="M6.74023 224.205L25.9025 205.043C22.4959 206.989 19.3448 209.313 16.4856 211.953L13.6508 214.788C11.0107 217.635 8.68688 220.798 6.74023 224.205Z" fill="#6B34E0"/>
<path d="M1.02197 239.437L41.1351 199.324C40.0279 199.543 38.9329 199.811 37.8501 200.103L1.80065 236.152C1.49649 237.235 1.24097 238.33 1.02197 239.437Z" fill="#6B34E0"/>
<path d="M0 249.633C0 249.742 0 249.852 0 249.961L51.6469 198.315C51.5374 198.315 51.4279 198.315 51.3184 198.315C50.5763 198.315 49.8341 198.339 49.0919 198.363L0.0486394 247.406C0.0243063 248.149 0 248.879 0 249.633Z" fill="#6B34E0"/>
<path d="M0.802885 258.673L60.3824 199.093C59.6645 198.971 58.9346 198.85 58.2168 198.753L0.474365 256.495C0.559531 257.237 0.669054 257.955 0.802885 258.673Z" fill="#6B34E0"/>
<path d="M2.74947 266.24L67.9378 201.052C67.3051 200.833 66.6725 200.638 66.0398 200.444L2.15332 264.33C2.33582 264.975 2.53047 265.608 2.74947 266.24Z" fill="#6B34E0"/>
<path d="M5.5844 272.92L74.6295 203.875C74.0698 203.595 73.5101 203.315 72.9383 203.059L4.75708 271.229C5.02474 271.8 5.2924 272.36 5.5844 272.92Z" fill="#6B34E0"/>
<path d="M9.13699 278.869L80.5667 207.439C80.0679 207.099 79.5691 206.758 79.0703 206.43L8.1394 277.36C8.4679 277.871 8.79633 278.37 9.13699 278.869Z" fill="#6B34E0"/>
<path d="M13.3589 284.162L85.8592 211.661C85.4212 211.26 84.9711 210.87 84.5209 210.493L12.1787 282.835C12.568 283.286 12.9574 283.724 13.3589 284.162Z" fill="#6B34E0"/>
<path d="M18.2011 288.833L90.5311 216.503C90.154 216.053 89.7646 215.603 89.3631 215.165L16.8628 287.666C17.3008 288.067 17.7509 288.456 18.2011 288.833Z" fill="#6B34E0"/>
<path d="M23.6761 292.873L94.5827 221.966C94.2542 221.455 93.9257 220.956 93.5729 220.47L22.1675 291.875C22.6663 292.216 23.1651 292.556 23.6761 292.873Z" fill="#6B34E0"/>
<path d="M29.8202 296.243L97.9407 228.122C97.6731 227.551 97.4053 226.991 97.1255 226.431L28.1292 295.428C28.6888 295.708 29.2484 295.975 29.8202 296.243Z" fill="#6B34E0"/>
<path d="M36.7308 298.847L100.556 235.033C100.362 234.388 100.167 233.756 99.9602 233.135L34.8328 298.263C35.4533 298.457 36.086 298.652 36.7308 298.847Z" fill="#6B34E0"/>
<path d="M44.566 300.513L102.211 242.868C102.114 242.138 102.004 241.421 101.883 240.691L42.4004 300.173C43.1182 300.307 43.836 300.416 44.566 300.513Z" fill="#6B34E0"/>
<path d="M51.3305 300.964C52.1213 300.964 52.9121 300.939 53.6907 300.903L102.6 251.993C102.637 251.215 102.661 250.424 102.661 249.633C102.661 249.572 102.661 249.499 102.661 249.438L51.1479 300.951C51.1966 300.951 51.2696 300.964 51.3305 300.964Z" fill="#6B34E0"/>
<path d="M64.9937 299.114L100.812 263.296C101.116 262.213 101.384 261.106 101.603 259.999L61.6843 299.917C62.8036 299.686 63.9108 299.418 64.9937 299.114Z" fill="#6B34E0"/>
<path d="M95.7384 275.377L77.075 294.041C84.8007 289.551 91.249 283.103 95.7384 275.377Z" fill="#6B34E0"/>
</svg>
