<svg width="375" height="280" viewBox="0 0 375 280" fill="none" xmlns="http://www.w3.org/2000/svg">
<path d="M183.117 114.343C182.058 114.343 181.291 115.109 181.291 116.16C181.291 117.22 182.058 117.986 183.108 117.986C184.168 117.986 184.925 117.22 184.934 116.169C184.934 115.109 184.177 114.343 183.117 114.343Z" fill="#424D67"/>
<path d="M201.343 114.343C200.283 114.324 199.488 115.072 199.469 116.122C199.45 117.182 200.207 117.977 201.248 117.996C202.308 118.014 203.093 117.267 203.112 116.217C203.141 115.147 202.393 114.362 201.343 114.343Z" fill="#424D67"/>
<path d="M219.502 114.343C218.442 114.333 217.666 115.1 217.657 116.15C217.647 117.21 218.414 117.986 219.464 117.996C220.524 118.005 221.291 117.248 221.3 116.188C221.309 115.119 220.562 114.352 219.502 114.343Z" fill="#424D67"/>
<path d="M137.639 127.089C138.699 127.089 139.465 126.332 139.465 125.272C139.465 124.213 138.708 123.446 137.648 123.446C136.588 123.446 135.822 124.213 135.822 125.263C135.812 126.313 136.588 127.08 137.639 127.089Z" fill="#424D67"/>
<path d="M155.798 127.089C156.858 127.099 157.634 126.351 157.653 125.291C157.662 124.222 156.915 123.446 155.864 123.437C154.804 123.427 154.019 124.175 154.01 125.225C153.991 126.285 154.757 127.07 155.798 127.089Z" fill="#424D67"/>
<path d="M173.995 123.437C172.945 123.446 172.178 124.222 172.188 125.282C172.197 126.332 172.982 127.099 174.033 127.089C175.093 127.08 175.84 126.304 175.831 125.244C175.831 124.184 175.055 123.427 173.995 123.437Z" fill="#424D67"/>
<path d="M192.277 123.437C191.218 123.408 190.413 124.146 190.375 125.187C190.347 126.247 191.085 127.051 192.126 127.089C193.186 127.118 193.99 126.38 194.019 125.339C194.056 124.26 193.328 123.465 192.277 123.437Z" fill="#424D67"/>
<path d="M210.427 123.437C209.367 123.427 208.582 124.184 208.572 125.225C208.563 126.285 209.32 127.07 210.37 127.08C211.43 127.089 212.206 126.332 212.216 125.282C212.225 124.222 211.477 123.446 210.427 123.437Z" fill="#424D67"/>
<path d="M146.742 136.183C147.802 136.174 148.559 135.407 148.549 134.347C148.549 133.288 147.783 132.53 146.723 132.53C145.663 132.53 144.906 133.306 144.906 134.366C144.916 135.417 145.692 136.183 146.742 136.183Z" fill="#424D67"/>
<path d="M163.103 134.224C163.046 135.294 163.766 136.117 164.797 136.183C165.857 136.24 166.69 135.521 166.746 134.489C166.803 133.42 166.093 132.597 165.062 132.54C163.983 132.474 163.16 133.193 163.103 134.224Z" fill="#E0B034"/>
<path d="M183.184 132.53C182.124 132.502 181.319 133.231 181.291 134.281C181.263 135.341 182.001 136.145 183.042 136.183C184.102 136.212 184.906 135.473 184.934 134.433C184.963 133.354 184.234 132.559 183.184 132.53Z" fill="#424D67"/>
<path d="M201.267 132.53C200.217 132.54 199.46 133.325 199.479 134.385C199.488 135.436 200.274 136.193 201.333 136.183C202.384 136.164 203.131 135.388 203.122 134.328C203.103 133.269 202.327 132.521 201.267 132.53Z" fill="#424D67"/>
<path d="M155.826 145.277C156.886 145.277 157.643 144.52 157.653 143.46C157.653 142.4 156.896 141.634 155.836 141.634C154.776 141.634 154.01 142.4 154.01 143.451C154.01 144.501 154.776 145.277 155.826 145.277Z" fill="#424D67"/>
<path d="M173.976 141.624C172.926 141.643 172.169 142.429 172.188 143.488C172.207 144.539 172.992 145.296 174.052 145.277C175.102 145.258 175.85 144.482 175.831 143.413C175.821 142.353 175.045 141.605 173.976 141.624Z" fill="#424D67"/>
<path d="M192.24 141.624C191.18 141.615 190.394 142.372 190.385 143.413C190.375 144.473 191.132 145.258 192.183 145.268C193.243 145.277 194.019 144.529 194.028 143.47C194.038 142.41 193.29 141.634 192.24 141.624Z" fill="#424D67"/>
<path d="M164.854 154.371C165.914 154.399 166.718 153.661 166.747 152.62C166.775 151.551 166.046 150.756 165.005 150.728C163.946 150.699 163.141 151.437 163.103 152.478C163.066 153.529 163.813 154.333 164.854 154.371Z" fill="#424D67"/>
<path d="M183.155 150.718C182.095 150.699 181.301 151.447 181.282 152.497C181.263 153.557 182.02 154.352 183.061 154.371C184.12 154.39 184.906 153.642 184.925 152.592C184.953 151.522 184.206 150.737 183.155 150.718Z" fill="#424D67"/>
<path d="M173.986 159.812C172.935 159.831 172.178 160.607 172.197 161.667C172.216 162.717 173.001 163.474 174.052 163.455C175.102 163.436 175.85 162.66 175.84 161.6C175.821 160.55 175.045 159.793 173.986 159.812Z" fill="#E9EBF5"/>
<path d="M155.836 90.7141C156.896 90.7141 157.653 89.9476 157.653 88.8783C157.653 87.8185 156.886 87.0615 155.826 87.0615C154.767 87.0615 154 87.8374 154.01 88.8878C154.01 89.9476 154.786 90.7141 155.836 90.7141Z" fill="#3DB93A"/>
<path d="M175.831 89.0108C175.888 87.9415 175.178 87.1182 174.147 87.0615C173.077 87.0047 172.254 87.7239 172.197 88.7553C172.14 89.8151 172.86 90.6479 173.891 90.7046C174.951 90.7709 175.784 90.0423 175.831 89.0108Z" fill="#424D67"/>
<path d="M192.24 87.0615C191.18 87.052 190.394 87.809 190.385 88.8499C190.375 89.9098 191.132 90.6952 192.183 90.7047C193.243 90.7141 194.019 89.9666 194.028 88.9067C194.038 87.8469 193.29 87.0804 192.24 87.0615Z" fill="#E9EBF5"/>
<path d="M146.77 99.8079C147.821 99.789 148.568 99.013 148.559 97.9532C148.549 96.9028 147.773 96.1458 146.704 96.1647C145.654 96.1836 144.897 96.9596 144.916 98.0194C144.925 99.0604 145.711 99.8174 146.77 99.8079Z" fill="#424D67"/>
<path d="M164.958 96.1553C163.898 96.1458 163.122 96.8934 163.103 97.9438C163.094 99.0036 163.841 99.789 164.892 99.7985C165.952 99.8079 166.728 99.0604 166.747 98.0005C166.756 96.9502 166.008 96.1742 164.958 96.1553Z" fill="#424D67"/>
<path d="M183.127 96.1553C182.067 96.1458 181.291 96.9028 181.291 97.9627C181.282 99.0225 182.048 99.7985 183.099 99.8079C184.158 99.8174 184.925 99.0509 184.934 98.0005C184.934 96.9312 184.187 96.1647 183.127 96.1553Z" fill="#424D67"/>
<path d="M201.295 96.1553C200.236 96.1553 199.479 96.9218 199.479 97.9816C199.479 99.0414 200.254 99.8079 201.305 99.7985C202.365 99.7985 203.122 99.032 203.122 97.9627C203.112 96.9123 202.355 96.1553 201.295 96.1553Z" fill="#424D67"/>
<path d="M137.62 108.902C138.68 108.911 139.446 108.154 139.456 107.094C139.465 106.034 138.708 105.259 137.658 105.249C136.598 105.24 135.822 106.006 135.812 107.056C135.812 108.107 136.579 108.892 137.62 108.902Z" fill="#424D67"/>
<path d="M155.807 108.902C156.867 108.911 157.634 108.154 157.643 107.094C157.653 106.034 156.896 105.259 155.845 105.249C154.785 105.24 154.009 106.006 154 107.056C154 108.107 154.766 108.892 155.807 108.902Z" fill="#424D67"/>
<path d="M174.09 105.249C173.03 105.221 172.226 105.959 172.188 107C172.159 108.06 172.898 108.864 173.938 108.902C174.998 108.94 175.803 108.192 175.831 107.151C175.869 106.072 175.14 105.287 174.09 105.249Z" fill="#E9EBF5"/>
<path d="M192.211 105.249C191.151 105.249 190.385 106.016 190.385 107.066C190.385 108.126 191.151 108.892 192.202 108.902C193.261 108.902 194.028 108.145 194.028 107.085C194.028 106.016 193.271 105.249 192.211 105.249Z" fill="#424D67"/>
<path d="M210.408 105.249C209.348 105.24 208.572 106.006 208.563 107.056C208.553 108.116 209.32 108.892 210.37 108.902C211.43 108.911 212.197 108.145 212.206 107.094C212.216 106.025 211.468 105.259 210.408 105.249Z" fill="#424D67"/>
<path d="M128.536 117.996C129.595 118.005 130.362 117.239 130.371 116.188C130.381 115.128 129.624 114.352 128.573 114.352C127.514 114.343 126.738 115.109 126.728 116.16C126.719 117.201 127.485 117.986 128.536 117.996Z" fill="#424D67"/>
<path d="M146.666 117.996C147.726 118.033 148.531 117.286 148.559 116.245C148.587 115.176 147.859 114.381 146.818 114.343C145.758 114.314 144.954 115.053 144.916 116.094C144.878 117.153 145.625 117.958 146.666 117.996Z" fill="#6B34E0"/>
<path d="M164.949 114.343C163.889 114.333 163.103 115.09 163.094 116.141C163.084 117.201 163.841 117.986 164.892 117.996C165.952 118.005 166.728 117.248 166.737 116.198C166.756 115.128 166.008 114.352 164.949 114.343Z" fill="#424D67"/>
<path d="M375.289 213.236C326.858 213.236 287.597 173.975 287.597 125.544C287.597 77.1128 326.858 37.8514 375.289 37.8514" fill="#E0B034"/>
<path d="M277.519 125.544C277.519 71.5487 321.294 27.7735 375.289 27.7735" stroke="#424D67" stroke-miterlimit="10"/>
<path d="M375.289 223.314C321.294 223.314 277.519 179.539 277.519 125.544" stroke="#424D67" stroke-width="4" stroke-miterlimit="10"/>
<path d="M277.519 125.544C277.519 71.5487 321.294 27.7735 375.289 27.7735" stroke="#424D67" stroke-miterlimit="10"/>
<path d="M375.289 223.314C321.294 223.314 277.519 179.539 277.519 125.544" stroke="#E9EBF5" stroke-width="4" stroke-miterlimit="10"/>
<path d="M268.491 125.544C268.491 66.5617 316.307 18.7459 375.289 18.7459" stroke="#424D67" stroke-miterlimit="10"/>
<path d="M375.289 232.342C316.307 232.342 268.491 184.526 268.491 125.544" stroke="#424D67" stroke-width="4" stroke-miterlimit="10"/>
<path d="M268.491 125.544C268.491 66.5617 316.307 18.7459 375.289 18.7459" stroke="#E9EBF5" stroke-miterlimit="10"/>
<path d="M375.289 232.342C316.307 232.342 268.491 184.526 268.491 125.544" stroke="#424D67" stroke-width="4" stroke-miterlimit="10"/>
<path d="M259.501 125.544C259.501 61.5937 311.339 9.7562 375.289 9.7562" stroke="#424D67" stroke-miterlimit="10"/>
<path d="M375.289 241.331C311.339 241.331 259.501 189.494 259.501 125.544" stroke="#E9EBF5" stroke-width="4" stroke-miterlimit="10"/>
<path d="M249.745 125.544C249.745 56.2094 305.954 0 375.289 0" stroke="#E9EBF5" stroke-miterlimit="10"/>
<path d="M375.289 251.088C305.954 251.088 249.745 194.878 249.745 125.544" stroke="#424D67" stroke-width="4" stroke-miterlimit="10"/>
<path d="M152.278 197.253L200.955 148.567" stroke="#424D67" stroke-width="2" stroke-miterlimit="10"/>
<path d="M164.305 197.253L212.992 148.567" stroke="#E9EBF5" stroke-width="2" stroke-miterlimit="10"/>
<path d="M176.342 197.253L225.019 148.567" stroke="#3DB93A" stroke-width="2" stroke-miterlimit="10"/>
<path d="M188.369 197.253L237.056 148.567" stroke="#E0B034" stroke-width="2" stroke-miterlimit="10"/>
<path d="M197.312 230.887C196.252 230.887 195.485 231.654 195.485 232.704C195.485 233.764 196.252 234.531 197.302 234.531C198.362 234.531 199.119 233.764 199.129 232.714C199.129 231.654 198.372 230.887 197.312 230.887Z" fill="#E9EBF5"/>
<path d="M215.537 230.887C214.477 230.868 213.682 231.616 213.663 232.666C213.645 233.726 214.402 234.521 215.442 234.54C216.502 234.559 217.288 233.811 217.307 232.761C217.335 231.692 216.587 230.906 215.537 230.887Z" fill="#E9EBF5"/>
<path d="M233.696 230.887C232.637 230.878 231.861 231.644 231.851 232.695C231.842 233.755 232.608 234.531 233.659 234.54C234.718 234.55 235.485 233.793 235.494 232.733C235.504 231.663 234.756 230.897 233.696 230.887Z" fill="#E9EBF5"/>
<path d="M151.833 243.634C152.893 243.634 153.659 242.877 153.659 241.817C153.659 240.757 152.902 239.991 151.843 239.991C150.783 239.991 150.016 240.757 150.016 241.808C150.007 242.858 150.783 243.624 151.833 243.634Z" fill="#E9EBF5"/>
<path d="M169.992 243.634C171.052 243.643 171.828 242.896 171.847 241.836C171.857 240.767 171.109 239.991 170.059 239.981C168.999 239.972 168.213 240.719 168.204 241.77C168.185 242.83 168.952 243.615 169.992 243.634Z" fill="#E9EBF5"/>
<path d="M188.189 239.981C187.139 239.991 186.372 240.767 186.382 241.826C186.391 242.877 187.177 243.643 188.227 243.634C189.287 243.624 190.035 242.848 190.025 241.789C190.025 240.729 189.249 239.972 188.189 239.981Z" fill="#E9EBF5"/>
<path d="M206.472 239.981C205.412 239.953 204.607 240.691 204.57 241.732C204.541 242.792 205.279 243.596 206.32 243.634C207.38 243.662 208.184 242.924 208.213 241.883C208.251 240.805 207.522 240.01 206.472 239.981Z" fill="#E9EBF5"/>
<path d="M224.621 239.981C223.562 239.972 222.776 240.729 222.767 241.77C222.757 242.83 223.514 243.615 224.565 243.624C225.624 243.634 226.4 242.877 226.41 241.826C226.419 240.767 225.672 239.991 224.621 239.981Z" fill="#E9EBF5"/>
<path d="M160.936 252.728C161.996 252.718 162.753 251.952 162.744 250.892C162.744 249.832 161.977 249.075 160.917 249.075C159.858 249.075 159.101 249.851 159.101 250.911C159.11 251.961 159.886 252.728 160.936 252.728Z" fill="#E9EBF5"/>
<path d="M177.298 250.769C177.241 251.838 177.96 252.661 178.991 252.728C180.051 252.784 180.884 252.065 180.941 251.034C180.998 249.965 180.288 249.141 179.256 249.084C178.178 249.018 177.354 249.737 177.298 250.769Z" fill="#E9EBF5"/>
<path d="M197.378 249.075C196.318 249.047 195.514 249.775 195.485 250.826C195.457 251.886 196.195 252.69 197.236 252.728C198.296 252.756 199.1 252.018 199.129 250.977C199.157 249.898 198.428 249.103 197.378 249.075Z" fill="#E9EBF5"/>
<path d="M215.461 249.075C214.411 249.084 213.654 249.87 213.673 250.93C213.682 251.98 214.468 252.737 215.528 252.728C216.578 252.709 217.326 251.933 217.316 250.873C217.297 249.813 216.521 249.066 215.461 249.075Z" fill="#E9EBF5"/>
<path d="M170.021 261.822C171.081 261.822 171.838 261.064 171.847 260.005C171.847 258.945 171.09 258.178 170.03 258.178C168.97 258.178 168.204 258.945 168.204 259.995C168.204 261.046 168.97 261.822 170.021 261.822Z" fill="#E9EBF5"/>
<path d="M188.17 258.169C187.12 258.188 186.363 258.973 186.382 260.033C186.401 261.083 187.186 261.84 188.246 261.821C189.297 261.803 190.044 261.027 190.025 259.957C190.016 258.897 189.24 258.15 188.17 258.169Z" fill="#E9EBF5"/>
<path d="M206.434 258.169C205.374 258.159 204.589 258.916 204.579 259.957C204.57 261.017 205.327 261.803 206.377 261.812C207.437 261.822 208.213 261.074 208.222 260.014C208.232 258.954 207.484 258.178 206.434 258.169Z" fill="#E9EBF5"/>
<path d="M179.048 270.915C180.108 270.944 180.913 270.206 180.941 269.165C180.969 268.095 180.241 267.301 179.2 267.272C178.14 267.244 177.336 267.982 177.298 269.023C177.26 270.073 178.007 270.877 179.048 270.915Z" fill="#E9EBF5"/>
<path d="M197.35 267.263C196.29 267.244 195.495 267.991 195.476 269.042C195.457 270.102 196.214 270.896 197.255 270.915C198.315 270.934 199.1 270.187 199.119 269.136C199.148 268.067 198.4 267.282 197.35 267.263Z" fill="#E9EBF5"/>
<path d="M188.18 276.356C187.13 276.375 186.373 277.151 186.391 278.211C186.41 279.262 187.196 280.019 188.246 280C189.297 279.981 190.044 279.205 190.035 278.145C190.016 277.095 189.24 276.338 188.18 276.356Z" fill="#E9EBF5"/>
<path d="M170.03 207.259C171.09 207.259 171.847 206.492 171.847 205.423C171.847 204.363 171.081 203.606 170.021 203.606C168.961 203.606 168.194 204.382 168.204 205.432C168.204 206.492 168.98 207.259 170.03 207.259Z" fill="#E9EBF5"/>
<path d="M190.025 205.555C190.082 204.486 189.372 203.663 188.341 203.606C187.272 203.549 186.448 204.268 186.392 205.3C186.335 206.36 187.054 207.192 188.085 207.249C189.145 207.315 189.978 206.587 190.025 205.555Z" fill="#E9EBF5"/>
<path d="M206.434 203.606C205.374 203.597 204.589 204.354 204.579 205.394C204.57 206.454 205.327 207.24 206.377 207.249C207.437 207.259 208.213 206.511 208.222 205.451C208.232 204.391 207.484 203.625 206.434 203.606Z" fill="#E9EBF5"/>
<path d="M160.965 216.352C162.015 216.334 162.763 215.558 162.753 214.498C162.744 213.447 161.968 212.69 160.898 212.709C159.848 212.728 159.091 213.504 159.11 214.564C159.119 215.605 159.905 216.362 160.965 216.352Z" fill="#E9EBF5"/>
<path d="M179.152 212.7C178.093 212.69 177.317 213.438 177.298 214.488C177.288 215.548 178.036 216.334 179.086 216.343C180.146 216.352 180.922 215.605 180.941 214.545C180.95 213.495 180.203 212.719 179.152 212.7Z" fill="#E9EBF5"/>
<path d="M197.321 212.7C196.261 212.69 195.485 213.447 195.485 214.507C195.476 215.567 196.242 216.343 197.293 216.352C198.353 216.362 199.119 215.595 199.129 214.545C199.129 213.476 198.381 212.709 197.321 212.7Z" fill="#E9EBF5"/>
<path d="M215.49 212.7C214.43 212.7 213.673 213.466 213.673 214.526C213.673 215.586 214.449 216.352 215.499 216.343C216.559 216.343 217.316 215.577 217.316 214.507C217.307 213.457 216.55 212.7 215.49 212.7Z" fill="#E9EBF5"/>
<path d="M151.814 225.446C152.874 225.456 153.641 224.699 153.65 223.639C153.659 222.579 152.902 221.803 151.852 221.794C150.792 221.784 150.016 222.551 150.007 223.601C150.007 224.651 150.773 225.437 151.814 225.446Z" fill="#E9EBF5"/>
<path d="M170.002 225.446C171.062 225.456 171.828 224.699 171.838 223.639C171.847 222.579 171.09 221.803 170.04 221.794C168.98 221.784 168.204 222.551 168.194 223.601C168.194 224.651 168.961 225.437 170.002 225.446Z" fill="#E9EBF5"/>
<path d="M188.284 221.794C187.224 221.765 186.42 222.503 186.382 223.544C186.354 224.604 187.092 225.408 188.133 225.446C189.193 225.484 189.997 224.737 190.025 223.696C190.063 222.617 189.335 221.831 188.284 221.794Z" fill="#E9EBF5"/>
<path d="M206.405 221.794C205.346 221.794 204.579 222.56 204.579 223.61C204.579 224.67 205.346 225.437 206.396 225.446C207.456 225.446 208.222 224.689 208.222 223.629C208.222 222.56 207.465 221.794 206.405 221.794Z" fill="#E9EBF5"/>
<path d="M224.602 221.794C223.543 221.784 222.767 222.551 222.757 223.601C222.748 224.661 223.514 225.437 224.565 225.446C225.624 225.456 226.391 224.689 226.4 223.639C226.41 222.57 225.662 221.803 224.602 221.794Z" fill="#E9EBF5"/>
<path d="M142.73 234.54C143.79 234.55 144.556 233.783 144.566 232.733C144.575 231.673 143.818 230.897 142.768 230.897C141.708 230.887 140.932 231.654 140.922 232.704C140.913 233.745 141.679 234.531 142.73 234.54Z" fill="#E9EBF5"/>
<path d="M160.861 234.54C161.92 234.578 162.725 233.83 162.753 232.789C162.782 231.72 162.053 230.925 161.012 230.887C159.952 230.859 159.148 231.597 159.11 232.638C159.072 233.698 159.82 234.502 160.861 234.54Z" fill="#E9EBF5"/>
<path d="M179.143 230.887C178.083 230.878 177.298 231.635 177.288 232.685C177.279 233.745 178.036 234.531 179.086 234.54C180.146 234.55 180.922 233.793 180.931 232.742C180.95 231.673 180.203 230.897 179.143 230.887Z" fill="#E9EBF5"/>
<path d="M139.437 265.111L157.236 234.281L139.437 203.451H103.837L86.0378 234.281L103.837 265.111H139.437Z" fill="#E0B034"/>
<path d="M175.036 265.111L192.836 234.281L175.036 203.451H139.437L121.637 234.281L139.437 265.111H175.036Z" stroke="#424D67" stroke-width="2" stroke-miterlimit="10"/>
<path d="M240.055 107.649H186.344V161.361H240.055V107.649Z" stroke="#DFB25B" stroke-width="2" stroke-miterlimit="10"/>
<path d="M266.911 80.7939H213.2V134.505H266.911V80.7939Z" fill="#6B34E0"/>
<path d="M47.0034 108.776L47.0034 -9.27444e-06" stroke="#3DB93A" stroke-width="2" stroke-miterlimit="10"/>
<path d="M38.2502 122.43L38.2502 -1.56401e-06" stroke="#E0B034" stroke-width="2" stroke-miterlimit="10"/>
<path d="M29.4971 136.076L29.4971 2.53912e-06" stroke="#E9EBF5" stroke-width="2" stroke-miterlimit="10"/>
<path d="M20.7439 149.721L20.7439 -1.14917e-06" stroke="#E9EBF5" stroke-width="2" stroke-miterlimit="10"/>
<path d="M305.453 37.1417L289.896 52.623L274.33 37.1417L258.773 52.623L243.216 37.1417L229.495 50.7966L215.764 37.1417L200.207 52.623L184.641 37.1417L169.084 52.623L153.527 37.1417L138.083 52.5094L139.806 54.2316L153.527 40.5767L169.084 56.058L184.641 40.5767L200.207 56.058L215.764 40.5767L229.495 54.2411L243.216 40.5767L258.773 56.058L274.33 40.5767L289.896 56.058L305.453 40.5767L319.184 54.2316L320.896 52.5094L305.453 37.1417Z" fill="#E0B034"/>
<path d="M305.453 9.46286L289.896 24.9441L274.33 9.46286L258.773 24.9441L243.216 9.46286L230.876 21.7457L230.867 25.1901L243.216 12.8979L258.773 28.3791L274.33 12.8979L289.896 28.3791L305.453 12.8979L319.184 26.5528L320.896 24.8211L305.453 9.46286Z" fill="#6B34E0"/>
<path d="M85.5647 71.9177V59.616M91.7155 65.7669H79.4138H91.7155Z" stroke="#E0B034" stroke-miterlimit="10"/>
<path d="M85.5647 41.6366V29.3349M91.7155 35.4857H79.4138H91.7155Z" stroke="#E0B034" stroke-miterlimit="10"/>
<path d="M85.5647 12.3017V0M91.7155 6.15086H79.4138H91.7155Z" stroke="#E0B034" stroke-miterlimit="10"/>
<path d="M85.5647 71.9177V59.616M91.7155 65.7669H79.4138H91.7155Z" stroke="#E9EBF5" stroke-width="2" stroke-miterlimit="10"/>
<path d="M85.5647 41.6366V29.3349M91.7155 35.4857H79.4138H91.7155Z" stroke="#424D67" stroke-width="2" stroke-miterlimit="10"/>
<path d="M85.5647 12.3017V0M91.7155 6.15086H79.4138H91.7155Z" stroke="#424D67" stroke-width="2" stroke-miterlimit="10"/>
<path d="M113.953 71.9177V59.616M120.104 65.7669H107.802H120.104Z" stroke="#E0B034" stroke-miterlimit="10"/>
<path d="M113.953 41.6366V29.3349M120.104 35.4857H107.802H120.104Z" stroke="#E0B034" stroke-miterlimit="10"/>
<path d="M113.953 12.3017V0M120.104 6.15086H107.802H120.104Z" stroke="#E0B034" stroke-miterlimit="10"/>
<path d="M113.953 71.9177V59.616M120.104 65.7669H107.802H120.104Z" stroke="#424D67" stroke-width="2" stroke-miterlimit="10"/>
<path d="M113.953 41.6366V29.3349M120.104 35.4857H107.802H120.104Z" stroke="#424D67" stroke-width="2" stroke-miterlimit="10"/>
<path d="M113.953 12.3017V0M120.104 6.15086H107.802H120.104Z" stroke="#E9EBF5" stroke-width="2" stroke-miterlimit="10"/>
<path d="M142.342 41.6366V29.3349M148.493 35.4857H136.191H148.493Z" stroke="#E0B034" stroke-miterlimit="10"/>
<path d="M142.342 12.3017V0M148.493 6.15086H136.191H148.493Z" stroke="#E0B034" stroke-miterlimit="10"/>
<path d="M142.342 41.6366V29.3349M148.493 35.4857H136.191H148.493Z" stroke="#424D67" stroke-width="2" stroke-miterlimit="10"/>
<path d="M142.342 12.3017V0M148.493 6.15086H136.191H148.493Z" stroke="#424D67" stroke-width="2" stroke-miterlimit="10"/>
<path d="M170.73 41.6366V29.3349M176.881 35.4857H164.58H176.881Z" stroke="#E0B034" stroke-miterlimit="10"/>
<path d="M170.73 12.3017V0M176.881 6.15086H164.58H176.881Z" stroke="#E0B034" stroke-miterlimit="10"/>
<path d="M170.73 41.6366V29.3349M176.881 35.4857H164.58H176.881Z" stroke="#E9EBF5" stroke-width="2" stroke-miterlimit="10"/>
<path d="M170.73 12.3017V0M176.881 6.15086H164.58H176.881Z" stroke="#424D67" stroke-width="2" stroke-miterlimit="10"/>
<path d="M199.119 41.6366V29.3349M205.27 35.4857H192.968H205.27Z" stroke="#E0B034" stroke-miterlimit="10"/>
<path d="M199.119 12.3017V0M205.27 6.15086H192.968H205.27Z" stroke="#E0B034" stroke-miterlimit="10"/>
<path d="M199.119 41.6366V29.3349M205.27 35.4857H192.968H205.27Z" stroke="#424D67" stroke-width="2" stroke-miterlimit="10"/>
<path d="M199.119 12.3017V0M205.27 6.15086H192.968H205.27Z" stroke="#E9EBF5" stroke-width="2" stroke-miterlimit="10"/>
<path d="M249.688 208.628C249.688 211.485 247.37 213.804 244.512 213.804C241.654 213.804 239.336 211.485 239.336 208.628C239.336 205.77 241.654 203.451 244.512 203.451C247.37 203.451 249.688 205.77 249.688 208.628Z" fill="#E9EBF5"/>
<path d="M265.766 224.705C265.766 227.563 263.447 229.881 260.589 229.881C257.732 229.881 255.413 227.563 255.413 224.705C255.413 221.847 257.732 219.529 260.589 219.529C263.447 219.529 265.766 221.847 265.766 224.705Z" fill="#6B34E0"/>
<path d="M281.843 240.782C281.843 243.64 279.525 245.959 276.667 245.959C273.809 245.959 271.491 243.64 271.491 240.782C271.491 237.925 273.809 235.606 276.667 235.606C279.534 235.606 281.843 237.925 281.843 240.782Z" fill="#3DB93A"/>
<path d="M297.93 256.869C297.93 259.727 295.612 262.045 292.754 262.045C289.896 262.045 287.578 259.727 287.578 256.869C287.578 254.012 289.896 251.693 292.754 251.693C295.612 251.693 297.93 254.002 297.93 256.869Z" fill="#E0B034"/>
<path d="M111.764 65.5729C135.528 79.4677 143.522 110.002 129.627 133.765C115.733 157.529 85.1986 165.524 61.4348 151.629" stroke="#6B34E0" stroke-width="2" stroke-miterlimit="10"/>
<path d="M67.8688 140.636C85.5626 150.983 108.288 145.025 118.63 127.34C128.976 109.646 123.019 86.9204 105.333 76.5785L67.8688 140.636Z" fill="#3DB93A"/>
<path d="M98.9187 101.519L83.4564 114.606L98.9187 127.693L83.4564 140.78L98.9187 153.867L83.4564 166.964L98.9187 180.06" stroke="#E9EBF5" stroke-width="4" stroke-miterlimit="10"/>
<path d="M119.737 101.519L104.275 114.606L119.737 127.693L104.275 140.78L119.737 153.867L104.275 166.964L119.737 180.06" stroke="#E0B034" stroke-width="4" stroke-miterlimit="10"/>
<path d="M-13.7576 174.382L1.14643 159.478C-1.50317 160.992 -3.95404 162.799 -6.17781 164.852L-8.38267 167.057C-10.4361 169.272 -12.2435 171.732 -13.7576 174.382Z" fill="#6B34E0"/>
<path d="M-18.2051 186.229L12.994 155.03C12.1329 155.2 11.2812 155.409 10.439 155.636L-17.5994 183.674C-17.836 184.516 -18.0347 185.368 -18.2051 186.229Z" fill="#6B34E0"/>
<path d="M-19 194.159C-19 194.244 -19 194.329 -19 194.414L21.1698 154.245C21.0846 154.245 20.9995 154.245 20.9143 154.245C20.3371 154.245 19.7598 154.264 19.1826 154.282L-18.9622 192.427C-18.9811 193.004 -19 193.572 -19 194.159Z" fill="#6B34E0"/>
<path d="M-18.3756 201.19L27.964 154.85C27.4057 154.756 26.838 154.661 26.2796 154.585L-18.6311 199.496C-18.5649 200.073 -18.4797 200.632 -18.3756 201.19Z" fill="#6B34E0"/>
<path d="M-16.8615 207.076L33.8405 156.374C33.3484 156.203 32.8564 156.052 32.3643 155.901L-17.3252 205.59C-17.1833 206.092 -17.0319 206.584 -16.8615 207.076Z" fill="#6B34E0"/>
<path d="M-14.6566 212.271L39.0451 158.569C38.6099 158.351 38.1745 158.134 37.7298 157.935L-15.3 210.956C-15.0919 211.4 -14.8837 211.836 -14.6566 212.271Z" fill="#6B34E0"/>
<path d="M-11.8935 216.898L43.6629 161.342C43.275 161.077 42.887 160.812 42.499 160.556L-12.6694 215.725C-12.4139 216.122 -12.1585 216.51 -11.8935 216.898Z" fill="#6B34E0"/>
<path d="M-8.6099 221.015L47.7792 164.625C47.4386 164.313 47.0885 164.01 46.7383 163.717L-9.52783 219.983C-9.22502 220.333 -8.92218 220.674 -8.6099 221.015Z" fill="#6B34E0"/>
<path d="M-4.84363 224.648L51.4131 168.392C51.1197 168.041 50.8169 167.691 50.5046 167.351L-5.88452 223.74C-5.54386 224.052 -5.19376 224.355 -4.84363 224.648Z" fill="#6B34E0"/>
<path d="M-0.585404 227.79L54.5642 172.64C54.3087 172.243 54.0532 171.855 53.7787 171.476L-1.75879 227.014C-1.37081 227.279 -0.982844 227.544 -0.585404 227.79Z" fill="#6B34E0"/>
<path d="M4.19347 230.411L57.1761 177.429C56.9679 176.984 56.7597 176.549 56.542 176.113L2.87817 229.777C3.31347 229.995 3.74871 230.203 4.19347 230.411Z" fill="#6B34E0"/>
<path d="M9.5683 232.436L59.2104 182.804C59.059 182.302 58.9076 181.81 58.7468 181.327L8.09204 231.982C8.57465 232.133 9.06677 232.285 9.5683 232.436Z" fill="#6B34E0"/>
<path d="M15.6624 233.733L60.4974 188.898C60.4217 188.33 60.3366 187.772 60.242 187.204L13.978 233.468C14.5363 233.572 15.0946 233.657 15.6624 233.733Z" fill="#6B34E0"/>
<path d="M20.9237 234.083C21.5388 234.083 22.1538 234.064 22.7594 234.035L60.8001 195.995C60.8285 195.389 60.8475 194.774 60.8475 194.159C60.8475 194.112 60.8475 194.055 60.8475 194.008L20.7817 234.073C20.8196 234.073 20.8764 234.083 20.9237 234.083Z" fill="#6B34E0"/>
<path d="M31.5505 232.644L59.4092 204.786C59.6457 203.944 59.8539 203.082 60.0242 202.221L28.9766 233.269C29.8471 233.089 30.7083 232.881 31.5505 232.644Z" fill="#6B34E0"/>
<path d="M55.4633 214.182L40.9473 228.698C46.9562 225.207 51.9715 220.191 55.4633 214.182Z" fill="#6B34E0"/>
</svg>
