<svg width="24" height="24" viewBox="0 0 24 24" fill="none" xmlns="http://www.w3.org/2000/svg">
<path d="M19.995 6.688C20.8914 6.15209 21.5622 5.30824 21.882 4.314C21.0397 4.81382 20.1181 5.1659 19.157 5.355C18.5088 4.66935 17.6532 4.21592 16.7219 4.06461C15.7905 3.91329 14.8353 4.07249 14.0034 4.51766C13.1715 4.96283 12.5091 5.66927 12.1184 6.52806C11.7276 7.38686 11.6301 8.35035 11.841 9.27C10.1349 9.18435 8.46586 8.74088 6.94223 7.96839C5.41861 7.19589 4.07445 6.11164 2.99702 4.786C2.44908 5.73111 2.28141 6.84933 2.52806 7.91358C2.77472 8.97782 3.41719 9.90829 4.32502 10.516C3.64373 10.4941 2.97754 10.3096 2.38202 9.978V10.032C2.38221 11.023 2.72515 11.9834 3.35268 12.7503C3.98021 13.5173 4.8537 14.0436 5.82502 14.24C5.19308 14.4119 4.53022 14.4372 3.88702 14.314C4.16175 15.1663 4.69572 15.9116 5.41442 16.4458C6.13312 16.9801 7.00068 17.2766 7.89602 17.294C6.37585 18.4871 4.49849 19.1342 2.56602 19.131C2.22302 19.131 1.88102 19.111 1.54102 19.072C3.50343 20.333 5.78739 21.0023 8.12002 21C9.72662 21.011 11.3194 20.7027 12.8058 20.093C14.2923 19.4832 15.6427 18.5841 16.7787 17.448C17.9148 16.3119 18.8137 14.9614 19.4233 13.4749C20.033 11.9884 20.3412 10.3956 20.33 8.789C20.33 8.603 20.326 8.418 20.317 8.234C21.1575 7.62662 21.8828 6.87417 22.459 6.012C21.676 6.35905 20.8455 6.58691 19.995 6.688Z" fill="#55ACEE"/>
</svg>
